<svg xmlns="http://www.w3.org/2000/svg" viewBox="0 0 64 64" role="img" aria-label="Medical heartbeat favicon">
  <defs>
    <linearGradient id="bg" x1="0" x2="1" y1="0" y2="1">
      <stop offset="0" stop-color="#0f766e"/>
      <stop offset="1" stop-color="#14b8a6"/>
    </linearGradient>
  </defs>
  <rect x="2" y="2" width="60" height="60" rx="16" fill="url(#bg)"/>
  <path d="M20.5 28.5h7.2l2.9-5.3 5.7 17.9 4.2-12.6h3.9" fill="none" stroke="#fff" stroke-linecap="round" stroke-linejoin="round" stroke-width="3.5"/>
  <path d="M18 40.8c-2.6-2.7-4-6.1-4-9.7 0-5.1 3.7-9.1 8.5-9.1 2.7 0 5 1.1 7.2 3.5 2.2-2.4 4.5-3.5 7.2-3.5 4.8 0 8.5 4 8.5 9.1 0 3.6-1.4 7-4 9.7l-11.7 11.6L18 40.8Z" fill="none" stroke="#fff" stroke-linecap="round" stroke-linejoin="round" stroke-width="2.6" opacity="0.96"/>
</svg>
